======================= WIZ KHALIFA BLACK N YELLOW =======================

Format                           : MPEG-4
Format profile                   : Base Media / Version 2
Codec ID                         : mp42
File size                        : 66.8 MiB
Duration                         : 3mn 51s
Overall bit rate                 : 2 425 Kbps
Encoded date                     : UTC 2010-10-10 19:43:25
Tagged date                      : UTC 2010-10-10 19:43:25
gsst                             : 0
gstd                             : 231010
gssd                             : B4A7DAC47HH1292436185784518
gshh                             :

Video
ID                               : 1
Format                           : AVC
Format/Info                      : Advanced Video Codec
Format profile                   : High@L3.1
Format settings, CABAC           : Yes
Format settings, ReFrames        : 1 frame
Format settings, GOP             : M=1, N=13
Codec ID                         : avc1
Codec ID/Info                    : Advanced Video Coding
Duration                         : 3mn 51s
Bit rate mode                    : Variable
Bit rate                         : 2 291 Kbps
Maximum bit rate                 : 5 753 Kbps
Width                            : 1 280 pixels
Height                           : 720 pixels
Display aspect ratio             : 16:9
Frame rate mode                  : Variable
Frame rate                       : 23.976 fps
Minimum frame rate               : 17.241 fps
Maximum frame rate               : 24.390 fps
Color space                      : YUV
Chroma subsampling               : 4:2:0
Bit depth                        : 8 bits
Scan type                        : Progressive
Bits/(Pixel*Frame)               : 0.104
Stream size                      : 63.1 MiB (94%)
Tagged date                      : UTC 2010-10-10 19:43:29

Audio
ID                               : 2
Format                           : AAC
Format/Info                      : Advanced Audio Codec
Format version                   : Version 4
Format profile                   : LC
Format settings, SBR             : No
Codec ID                         : 40
Duration                         : 3mn 50s
Bit rate mode                    : Variable
Bit rate                         : 128 Kbps
Maximum bit rate                 : 181 Kbps
Channel(s)                       : 2 channels
Channel positions                : Front: L R
Sampling rate                    : 44.1 KHz
Stream size                      : 3.52 MiB (5%)
Title                            : (C) 2007 Google Inc. v08.13.2007.
Encoded date                     : UTC 2010-10-10 19:43:27
Tagged date                      : UTC 2010-10-10 19:43:29


=============================================================================

        http://thepiratebay.org/user/HaUnTiNg.SuMMeR/

==============================================================================		

